<svg xmlns="http://www.w3.org/2000/svg" xmlns:xlink="http://www.w3.org/1999/xlink" width="68.018" height="68" viewBox="0 0 68.018 68"><defs><style>.a{fill:url(#a);}</style><linearGradient id="a" x1="0.239" y1="0.234" x2="0.923" y2="0.918" gradientUnits="objectBoundingBox"><stop offset="0" stop-color="#00bec8"/><stop offset="0.657" stop-color="#00cfff"/><stop offset="1" stop-color="#9755ff"/></linearGradient></defs><g transform="translate(-195.939 -272.532)"><path class="a" d="M219.282,320.885a22.222,22.222,0,0,1-15.808,6.577h0a32.738,32.738,0,0,1-7.534-20.938,34.01,34.01,0,0,1,32.949-33.992v.645h0v2.547q-.8.749-1.563,1.542-1.248,1.3-2.378,2.71t-2.132,2.921q-1.014,1.523-1.89,3.146-.9,1.663-1.643,3.419a40.439,40.439,0,0,0,0,31.424Zm3.745-18.736a6.921,6.921,0,1,0,6.921-6.921A6.921,6.921,0,0,0,223.027,302.149Zm40.93,4.375a34.009,34.009,0,0,0-32.949-33.992v.645h0v2.548q.8.747,1.561,1.54,1.25,1.3,2.378,2.71t2.133,2.921c.676,1.016,1.308,2.068,1.89,3.148q.9,1.663,1.643,3.416h0a40.445,40.445,0,0,1,0,31.426,22.222,22.222,0,0,0,15.808,6.575h0A32.74,32.74,0,0,0,263.957,306.524Zm-52.552,28.512a34.03,34.03,0,0,0,37.086,0,28.748,28.748,0,0,0-37.086,0Z" transform="translate(0)"/></g></svg>