<svg xmlns="http://www.w3.org/2000/svg" width="68.018" height="68" viewBox="0 0 68.018 68"><defs><style>.a{fill:#fff;}</style></defs><g transform="translate(-195.939 -272.532)"><g transform="translate(195.939 272.532)"><path class="a" d="M216.1,305.173a40.179,40.179,0,0,1,3.177-15.712q.74-1.754,1.643-3.419.874-1.619,1.89-3.146,1-1.51,2.132-2.921t2.378-2.71q.761-.792,1.563-1.542v-2.547h0v-.645a34.01,34.01,0,0,0-32.949,33.992,32.738,32.738,0,0,0,7.534,20.938h0a22.222,22.222,0,0,0,15.808-6.577A40.174,40.174,0,0,1,216.1,305.173Z" transform="translate(-195.939 -272.532)"/><circle class="a" cx="6.921" cy="6.921" r="6.921" transform="matrix(0.987, -0.16, 0.16, 0.987, 26.068, 23.894)"/><path class="a" d="M375.656,306.524a34.009,34.009,0,0,0-32.949-33.992v.645h0v2.548q.8.747,1.561,1.54,1.25,1.3,2.378,2.71t2.133,2.921c.676,1.016,1.308,2.068,1.89,3.148q.9,1.663,1.643,3.416h0a40.445,40.445,0,0,1,0,31.426,22.222,22.222,0,0,0,15.808,6.575h0A32.741,32.741,0,0,0,375.656,306.524Z" transform="translate(-307.638 -272.532)"/><path class="a" d="M260.666,512.524a34.03,34.03,0,0,0,37.086,0,28.748,28.748,0,0,0-37.086,0Z" transform="translate(-245.2 -450.02)"/></g></g></svg>