<svg xmlns="http://www.w3.org/2000/svg" width="187.612" height="68" viewBox="0 0 187.612 68"><defs><style>.a{fill:#fff;}</style></defs><g transform="translate(-195.939 -272.532)"><g transform="translate(195.939 272.532)"><path class="a" d="M216.1,305.173a40.179,40.179,0,0,1,3.177-15.712q.74-1.754,1.643-3.419.874-1.619,1.89-3.146,1-1.51,2.132-2.921t2.378-2.71q.761-.792,1.563-1.542v-2.547h0v-.645a34.01,34.01,0,0,0-32.949,33.992,32.738,32.738,0,0,0,7.534,20.938h0a22.222,22.222,0,0,0,15.808-6.577A40.174,40.174,0,0,1,216.1,305.173Z" transform="translate(-195.939 -272.532)"/><circle class="a" cx="6.921" cy="6.921" r="6.921" transform="matrix(0.987, -0.16, 0.16, 0.987, 26.068, 23.894)"/><path class="a" d="M375.656,306.524a34.009,34.009,0,0,0-32.949-33.992v.645h0v2.548q.8.747,1.561,1.54,1.25,1.3,2.378,2.71t2.133,2.921c.676,1.016,1.308,2.068,1.89,3.148q.9,1.663,1.643,3.416h0a40.445,40.445,0,0,1,0,31.426,22.222,22.222,0,0,0,15.808,6.575h0A32.741,32.741,0,0,0,375.656,306.524Z" transform="translate(-307.638 -272.532)"/><path class="a" d="M260.666,512.524a34.03,34.03,0,0,0,37.086,0,28.748,28.748,0,0,0-37.086,0Z" transform="translate(-245.2 -450.02)"/></g><g transform="translate(275.827 291.007)"><path class="a" d="M532.458,350.74V355.9h1.45l3.131-5.165H539.5l-3.4,5.236a2.248,2.248,0,0,1-.389.46,1.759,1.759,0,0,1-.5.336,1.965,1.965,0,0,1,.478.345,2.112,2.112,0,0,1,.372.469l3.431,5.537h-2.512l-3.078-5.254h-1.45v5.254h-2.105V350.74Z" transform="translate(-530.335 -350.528)"/><path class="a" d="M576.008,350.74h3.378l3.255,12.382H580.43l-.69-2.742h-4.086l-.672,2.742h-2.211Zm1.928,2h-.46l-1.4,5.731h3.255Z" transform="translate(-562.618 -350.528)"/><path class="a" d="M624.123,363.122H622V350.74h2.123Z" transform="translate(-600.084 -350.528)"/><path class="a" d="M646.372,369.247v1.61h-4.829v-1.61Z" transform="translate(-614.957 -364.612)"/><path class="a" d="M664.524,350.74l2.547,5.377,2.582-5.377h2.459l-3.98,7.641v4.741H666.01v-4.741l-3.962-7.641Z" transform="translate(-630.563 -350.528)"/><path class="a" d="M712.753,349.851a3.865,3.865,0,0,1,4.51,4.387v4.033a4.527,4.527,0,1,1-9.021,0v-4.033a4.647,4.647,0,0,1,1.035-3.272A4.579,4.579,0,0,1,712.753,349.851Zm0,1.911a2.337,2.337,0,0,0-1.884.619,3.132,3.132,0,0,0-.5,1.981v3.768a3.166,3.166,0,0,0,.5,2,3.176,3.176,0,0,0,3.768,0,3.168,3.168,0,0,0,.5-2v-3.768a3.134,3.134,0,0,0-.5-1.981A2.338,2.338,0,0,0,712.753,351.762Z" transform="translate(-665.719 -349.851)"/><path class="a" d="M758.336,350.74v7.712a3.429,3.429,0,0,0,.548,2.2,2.9,2.9,0,0,0,3.67-.018,3.4,3.4,0,0,0,.557-2.185V350.74h2.105v8.207a4.826,4.826,0,0,1-.319,1.8,3.806,3.806,0,0,1-2.317,2.229,5.486,5.486,0,0,1-1.875.3,5.43,5.43,0,0,1-1.857-.3,3.806,3.806,0,0,1-2.317-2.229,4.826,4.826,0,0,1-.318-1.8V350.74Z" transform="translate(-702.228 -350.528)"/><path class="a" d="M532.579,427.165l3.414,6.085,3.308-6.085h2.282v12.382h-2.1v-9.074l-2.989,5.5h-1.132l-2.972-5.466v9.039h-2.105V427.165Z" transform="translate(-530.279 -408.691)"/><path class="a" d="M589.429,442.5v.69a2.349,2.349,0,0,0,.487,1.619,2.089,2.089,0,0,0,1.618.54,5.431,5.431,0,0,0,.885-.062,1.333,1.333,0,0,0,.61-.248,1.09,1.09,0,0,0,.354-.5,2.563,2.563,0,0,0,.115-.849h2a3.069,3.069,0,0,1-1.015,2.547,4.541,4.541,0,0,1-2.9.814,4.44,4.44,0,0,1-3.089-.964,3.79,3.79,0,0,1-1.059-2.945V440.68q0-3.891,4.112-3.891a4.448,4.448,0,0,1,3.063.929,3.606,3.606,0,0,1,1.032,2.821V442.5Zm4.21-2.123a1.823,1.823,0,0,0-.513-1.45,2.369,2.369,0,0,0-1.574-.442,2.448,2.448,0,0,0-1.583.442,1.772,1.772,0,0,0-.54,1.45v.637h4.21Z" transform="translate(-573.774 -416.016)"/><path class="a" d="M638.857,437.294H637.25l-.375-1.185a3.033,3.033,0,0,1-1.132.982,3.608,3.608,0,0,1-1.7.38,3.515,3.515,0,0,1-2.83-1.008,4.328,4.328,0,0,1-.849-2.866v-2.529a5.936,5.936,0,0,1,.2-1.619,3.09,3.09,0,0,1,.637-1.212,2.782,2.782,0,0,1,1.132-.761,4.824,4.824,0,0,1,1.707-.265,3.873,3.873,0,0,1,1.68.345,2.884,2.884,0,0,1,1.132.911V424.2h2Zm-4.245-8.349a2.36,2.36,0,0,0-1.707.53,2.3,2.3,0,0,0-.54,1.7v2.335a2.336,2.336,0,0,0,.531,1.68,2.305,2.305,0,0,0,1.716.548,2.061,2.061,0,0,0,2.247-2.282v-2.247a2.184,2.184,0,0,0-.619-1.707A2.341,2.341,0,0,0,634.611,428.945Z" transform="translate(-606.451 -406.438)"/><path class="a" d="M678.263,427.388v9.906h-2v-9.906Zm-.053-3.184v2.123h-1.893V424.2Z" transform="translate(-641.382 -406.438)"/><path class="a" d="M697.1,437.529v6.12a2.554,2.554,0,0,0,.486,1.689,2.09,2.09,0,0,0,1.672.575,1.928,1.928,0,0,0,1.592-.655,2.818,2.818,0,0,0,.53-1.822v-5.908h2.034v9.906h-1.61l-.336-1.221a3.2,3.2,0,0,1-2.742,1.4,3.47,3.47,0,0,1-2.821-1.017,4.366,4.366,0,0,1-.84-2.857v-6.209Z" transform="translate(-655.692 -416.579)"/><path class="a" d="M741.965,436.966l.318,1.185a3.038,3.038,0,0,1,1.044-.982,3.159,3.159,0,0,1,1.609-.38,3.029,3.029,0,0,1,1.654.442,2.458,2.458,0,0,1,1,1.221,3.56,3.56,0,0,1,1.238-1.2,3.735,3.735,0,0,1,1.928-.46,3.5,3.5,0,0,1,2.83,1.017,4.365,4.365,0,0,1,.849,2.874v6.191h-2v-5.943a3.068,3.068,0,0,0-.442-1.769,1.763,1.763,0,0,0-1.556-.637q-2.017,0-2.017,2.406v5.943h-2v-5.943a3.02,3.02,0,0,0-.451-1.769,1.787,1.787,0,0,0-1.565-.637q-2.034,0-2.034,2.476v5.873h-2v-9.906Z" transform="translate(-690.173 -416.016)"/><path class="a" d="M807.369,431.162h1.486l.368-2h1.56v2h2.122V432.9h-2.122v4.953a2.618,2.618,0,0,0,.106.814.914.914,0,0,0,.354.486,1.3,1.3,0,0,0,.654.195,6.841,6.841,0,0,0,1.008-.027v1.875q-.248.035-.548.053c-.2.011-.389.018-.566.018a4.624,4.624,0,0,1-1.49-.2,1.969,1.969,0,0,1-.921-.619,2.433,2.433,0,0,1-.465-1.035,6.933,6.933,0,0,1-.131-1.433V432.9h-1.415Z" transform="translate(-741.16 -410.212)"/><path class="a" d="M840.385,442.5v.69a2.349,2.349,0,0,0,.486,1.619,2.09,2.09,0,0,0,1.619.54,5.431,5.431,0,0,0,.885-.062,1.334,1.334,0,0,0,.61-.248,1.089,1.089,0,0,0,.354-.5,2.561,2.561,0,0,0,.115-.849h2a3.069,3.069,0,0,1-1.015,2.547,4.541,4.541,0,0,1-2.9.814,4.44,4.44,0,0,1-3.089-.964,3.79,3.79,0,0,1-1.059-2.945V440.68q0-3.891,4.113-3.891a4.448,4.448,0,0,1,3.063.929,3.606,3.606,0,0,1,1.033,2.821V442.5Zm4.21-2.123a1.823,1.823,0,0,0-.513-1.45,2.369,2.369,0,0,0-1.574-.442,2.448,2.448,0,0,0-1.583.442,1.772,1.772,0,0,0-.539,1.45v.637h4.21Z" transform="translate(-764.766 -416.016)"/><path class="a" d="M887.606,440.786v-.69a1.423,1.423,0,0,0-.487-1.194,2.484,2.484,0,0,0-1.53-.38,2.274,2.274,0,0,0-1.707.522,2.369,2.369,0,0,0-.486,1.654v2.441a2.4,2.4,0,0,0,.478,1.645,2.216,2.216,0,0,0,1.7.53,2.566,2.566,0,0,0,1.548-.371,1.418,1.418,0,0,0,.487-1.2v-.69h2v.69a2.868,2.868,0,0,1-1.121,2.512,5.068,5.068,0,0,1-2.992.8q-4.1,0-4.095-3.927V440.7q0-3.909,4.113-3.909a5.068,5.068,0,0,1,2.983.787A2.874,2.874,0,0,1,889.6,440.1v.69Z" transform="translate(-797.5 -416.016)"/><path class="a" d="M927.295,424.2l.014,4.3a2.91,2.91,0,0,1,1.112-.937,3.664,3.664,0,0,1,1.659-.354,3.5,3.5,0,0,1,2.824,1.008,4.3,4.3,0,0,1,.848,2.848v6.226h-2v-6.1a2.505,2.505,0,0,0-.488-1.689,2.142,2.142,0,0,0-1.678-.557,2.256,2.256,0,0,0-1.678.619,2.435,2.435,0,0,0-.613,1.787v5.943h-2V424.2Z" transform="translate(-830.91 -406.438)"/><path class="a" d="M974.577,471.717h-2.052v-2.282h2.052Z" transform="translate(-866.854 -440.861)"/></g></g></svg>