<svg xmlns="http://www.w3.org/2000/svg" width="88.235" height="29.024" viewBox="0 0 88.235 29.024"><defs><style>.a{fill:#fff;}</style></defs><g transform="translate(-230.931 -277.72)"><g transform="translate(269.312 283.501)"><path class="a" d="M538.764,325.5h.231a.408.408,0,0,1,.408.408v2.927h.087l3.292-3.219a.407.407,0,0,1,.285-.116h.278a.408.408,0,0,1,.282.7l-2.992,2.861,3.317,3.462a.408.408,0,0,1-.294.69h-.393a.408.408,0,0,1-.3-.13l-3.475-3.728H539.4v3.45a.407.407,0,0,1-.408.408h-.231a.408.408,0,0,1-.408-.408v-6.9A.408.408,0,0,1,538.764,325.5Z" transform="translate(-538.28 -325.307)"/><path class="a" d="M595.277,325.5h.413a.407.407,0,0,1,.375.247l2.953,6.9a.408.408,0,0,1-.375.568h-.328a.408.408,0,0,1-.378-.254l-.67-1.653h-3.672l-.66,1.651a.408.408,0,0,1-.378.256h-.32a.408.408,0,0,1-.373-.572l3.041-6.9A.408.408,0,0,1,595.277,325.5Zm1.608,4.893-1.438-3.542h-.022l-1.46,3.542Z" transform="translate(-585.062 -325.307)"/><path class="a" d="M658.28,325.5h.231a.408.408,0,0,1,.408.408v6.9a.408.408,0,0,1-.408.408h-.231a.407.407,0,0,1-.408-.408v-6.9A.408.408,0,0,1,658.28,325.5Z" transform="translate(-642.845 -325.307)"/><path class="a" d="M686,359.966h-1.866a.408.408,0,0,1-.408-.408v-.1a.408.408,0,0,1,.408-.408H686a.408.408,0,0,1,.408.408v.1A.408.408,0,0,1,686,359.966Z" transform="translate(-665.466 -354.658)"/><path class="a" d="M707.921,329.927l-2.5-3.792a.408.408,0,0,1,.34-.632h.356a.408.408,0,0,1,.346.193l1.984,3.2,2.048-3.2a.408.408,0,0,1,.343-.188h.294a.408.408,0,0,1,.34.632l-2.5,3.792v2.883a.408.408,0,0,1-.408.408h-.231a.408.408,0,0,1-.408-.408Z" transform="translate(-684.383 -325.307)"/><path class="a" d="M765.729,332.044a4.159,4.159,0,0,1-1.624-.311,3.781,3.781,0,0,1-1.27-.856,3.954,3.954,0,0,1-.828-1.286,4.431,4.431,0,0,1,0-3.2,3.956,3.956,0,0,1,.828-1.286,3.786,3.786,0,0,1,1.27-.856,4.4,4.4,0,0,1,3.247,0,3.787,3.787,0,0,1,1.269.856,3.957,3.957,0,0,1,.828,1.286,4.432,4.432,0,0,1,0,3.2,3.955,3.955,0,0,1-.828,1.286,3.783,3.783,0,0,1-1.269.856A4.161,4.161,0,0,1,765.729,332.044Zm0-.981a2.8,2.8,0,0,0,2.114-.9,2.906,2.906,0,0,0,.588-.975,3.542,3.542,0,0,0,0-2.386,2.914,2.914,0,0,0-.588-.975,2.89,2.89,0,0,0-4.228,0,2.9,2.9,0,0,0-.588.975,3.542,3.542,0,0,0,0,2.386,2.9,2.9,0,0,0,.588.975,2.8,2.8,0,0,0,2.114.9Z" transform="translate(-733.692 -323.936)"/><path class="a" d="M838.393,325.5a.408.408,0,0,1,.408.408v4.322a3.04,3.04,0,0,0,.1.747,2.161,2.161,0,0,0,.327.714,1.775,1.775,0,0,0,.6.534,2.127,2.127,0,0,0,1.831,0,1.774,1.774,0,0,0,.6-.534,2.163,2.163,0,0,0,.327-.714,3.031,3.031,0,0,0,.1-.747v-4.322a.408.408,0,0,1,.408-.408h.231a.408.408,0,0,1,.408.408V330.4a3.164,3.164,0,0,1-.229,1.226,2.915,2.915,0,0,1-.632.954,2.79,2.79,0,0,1-.948.621,3.286,3.286,0,0,1-2.354,0,2.786,2.786,0,0,1-.948-.621,2.912,2.912,0,0,1-.632-.954,3.162,3.162,0,0,1-.229-1.226v-4.485a.408.408,0,0,1,.408-.408Z" transform="translate(-800.225 -325.307)"/><path class="a" d="M538.154,407.253h.88a.407.407,0,0,1,.376.25l2.347,5.591h.044l2.326-5.59a.408.408,0,0,1,.376-.251h.879a.408.408,0,0,1,.408.408v6.9a.408.408,0,0,1-.408.408h-.231a.408.408,0,0,1-.408-.408v-5.934h-.022l-2.5,6.089a.408.408,0,0,1-.377.253h-.151a.408.408,0,0,1-.377-.253l-2.5-6.089h-.022v5.934a.408.408,0,0,1-.408.408h-.231a.408.408,0,0,1-.408-.408v-6.9A.408.408,0,0,1,538.154,407.253Z" transform="translate(-537.746 -396.83)"/><path class="a" d="M614.711,427.663a.385.385,0,0,1,.067-.59,2.79,2.79,0,0,1,.595-.29,3.283,3.283,0,0,1,1.09-.191,3,3,0,0,1,.975.142,1.9,1.9,0,0,1,.67.381,1.507,1.507,0,0,1,.387.551,1.72,1.72,0,0,1,.125.648v2.637q0,.272.011.5l0,.029a.384.384,0,0,1-.383.407h-.1a.385.385,0,0,1-.384-.368q-.009-.208-.009-.417h-.022a1.877,1.877,0,0,1-.774.708,2.44,2.44,0,0,1-1.035.207,2.374,2.374,0,0,1-.687-.1,1.671,1.671,0,0,1-.572-.294,1.4,1.4,0,0,1-.387-.485,1.673,1.673,0,0,1,.082-1.509,1.69,1.69,0,0,1,.61-.55,2.947,2.947,0,0,1,.9-.305,6.285,6.285,0,0,1,1.106-.093h.719v-.218a1.077,1.077,0,0,0-.076-.392,1.059,1.059,0,0,0-.229-.354,1.1,1.1,0,0,0-.381-.251,1.451,1.451,0,0,0-.545-.093,2.012,2.012,0,0,0-.5.055,2.194,2.194,0,0,0-.387.136,1.69,1.69,0,0,0-.316.191l0,0a.379.379,0,0,1-.5-.038Zm2.471,1.741a6.9,6.9,0,0,0-.714.038,2.812,2.812,0,0,0-.665.147,1.28,1.28,0,0,0-.49.305.689.689,0,0,0-.191.5.711.711,0,0,0,.3.643,1.467,1.467,0,0,0,.812.2,1.571,1.571,0,0,0,.687-.136,1.29,1.29,0,0,0,.458-.354,1.371,1.371,0,0,0,.251-.485,1.921,1.921,0,0,0,.076-.529V429.4Z" transform="translate(-604.585 -413.75)"/><path class="a" d="M662.518,426.723h.4a.293.293,0,0,1,.293.292v.5h.022a1.4,1.4,0,0,1,.262-.376,1.747,1.747,0,0,1,.365-.289,1.935,1.935,0,0,1,.441-.191,1.688,1.688,0,0,1,.48-.071,1.624,1.624,0,0,1,.166.008.292.292,0,0,1,.26.3l-.019.465a.294.294,0,0,1-.343.275h0l-.046,0a1.5,1.5,0,0,0-1.2.4,1.772,1.772,0,0,0-.381,1.253v2.3a.293.293,0,0,1-.293.293h-.4a.293.293,0,0,1-.292-.293v-4.58A.293.293,0,0,1,662.518,426.723Z" transform="translate(-646.654 -413.75)"/><path class="a" d="M695.737,403.072h.166a.408.408,0,0,1,.408.408v4.91l2.1-2.114a.407.407,0,0,1,.289-.12h.189a.408.408,0,0,1,.284.7l-1.689,1.643,1.978,2.126a.408.408,0,0,1-.3.685h-.277a.407.407,0,0,1-.3-.136l-2.276-2.545V410.9a.408.408,0,0,1-.408.408h-.166a.408.408,0,0,1-.408-.408V403.48A.408.408,0,0,1,695.737,403.072Z" transform="translate(-675.616 -393.172)"/><path class="a" d="M740.017,429.665a1.294,1.294,0,0,0,.147.616,1.532,1.532,0,0,0,.387.474,1.788,1.788,0,0,0,.556.3,1.988,1.988,0,0,0,.654.109,1.465,1.465,0,0,0,.8-.212,2.4,2.4,0,0,0,.414-.332.351.351,0,0,1,.461-.035l.188.144a.352.352,0,0,1,.026.533,2.775,2.775,0,0,1-2.016.752,2.848,2.848,0,0,1-1.106-.207,2.4,2.4,0,0,1-.839-.572,2.526,2.526,0,0,1-.529-.861,3.036,3.036,0,0,1-.185-1.073,2.823,2.823,0,0,1,.2-1.073,2.667,2.667,0,0,1,.556-.861,2.543,2.543,0,0,1,.845-.572,2.719,2.719,0,0,1,1.068-.207,2.554,2.554,0,0,1,1.161.24,2.3,2.3,0,0,1,.779.627,2.474,2.474,0,0,1,.441.872,3.634,3.634,0,0,1,.136.986h0a.349.349,0,0,1-.349.349Zm3.095-.785a2.077,2.077,0,0,0-.1-.6,1.323,1.323,0,0,0-.278-.474,1.284,1.284,0,0,0-.463-.316,1.693,1.693,0,0,0-.648-.114,1.576,1.576,0,0,0-.659.136,1.609,1.609,0,0,0-.507.354,1.637,1.637,0,0,0-.322.485,1.335,1.335,0,0,0-.114.529Z" transform="translate(-713.799 -413.75)"/><path class="a" d="M787.954,418.351h-1.134v2.343q0,.218.011.43a1.134,1.134,0,0,0,.082.381.619.619,0,0,0,.218.272.745.745,0,0,0,.431.1,2.073,2.073,0,0,0,.36-.033h0a.276.276,0,0,1,.334.265v.329a.273.273,0,0,1-.193.261,1.654,1.654,0,0,1-.259.055,3.424,3.424,0,0,1-.431.038,1.973,1.973,0,0,1-.877-.158,1.076,1.076,0,0,1-.458-.409,1.317,1.317,0,0,1-.174-.561q-.028-.311-.027-.627v-2.691h-.861a.272.272,0,0,1-.272-.272v-.305a.272.272,0,0,1,.272-.272h.861v-1.177a.272.272,0,0,1,.272-.272h.436a.272.272,0,0,1,.272.272V417.5h1.134a.272.272,0,0,1,.272.272v.305A.272.272,0,0,1,787.954,418.351Z" transform="translate(-753.813 -404.529)"/><rect class="a" width="0.981" height="5.165" rx="0.49" transform="translate(35.862 12.973)"/><path class="a" d="M846,426.723h.166a.408.408,0,0,1,.408.408v.388h.022a1.448,1.448,0,0,1,.643-.67,2.131,2.131,0,0,1,1.057-.256,2.24,2.24,0,0,1,.714.114,1.609,1.609,0,0,1,.6.354,1.713,1.713,0,0,1,.409.616,2.355,2.355,0,0,1,.153.888v2.916a.408.408,0,0,1-.408.408H849.6a.408.408,0,0,1-.408-.408v-2.644a1.724,1.724,0,0,0-.1-.616,1.125,1.125,0,0,0-.262-.414.985.985,0,0,0-.376-.229,1.4,1.4,0,0,0-.441-.071,1.6,1.6,0,0,0-.567.1,1.183,1.183,0,0,0-.458.311,1.464,1.464,0,0,0-.3.539,2.45,2.45,0,0,0-.109.774v2.251a.408.408,0,0,1-.408.408H846a.408.408,0,0,1-.408-.408v-4.35A.408.408,0,0,1,846,426.723Z" transform="translate(-807.085 -413.75)"/><path class="a" d="M898.323,431.844a2.774,2.774,0,0,1-.2,1.074,2.45,2.45,0,0,1-.572.839,2.6,2.6,0,0,1-.894.55,3.268,3.268,0,0,1-1.155.2,4.238,4.238,0,0,1-1.357-.207,3.064,3.064,0,0,1-.855-.456.4.4,0,0,1-.066-.576l.137-.171a.4.4,0,0,1,.574-.061,2.524,2.524,0,0,0,.531.343,2.331,2.331,0,0,0,1.013.213,2.255,2.255,0,0,0,.9-.158,1.552,1.552,0,0,0,.572-.409,1.47,1.47,0,0,0,.3-.572,2.462,2.462,0,0,0,.087-.648v-.763h-.033a1.724,1.724,0,0,1-.768.692,2.406,2.406,0,0,1-1.019.223,2.713,2.713,0,0,1-1.052-.2,2.5,2.5,0,0,1-.834-.556,2.527,2.527,0,0,1-.545-.839,2.776,2.776,0,0,1-.2-1.052,3.014,3.014,0,0,1,.185-1.062,2.6,2.6,0,0,1,.529-.866,2.4,2.4,0,0,1,.828-.577,2.736,2.736,0,0,1,1.084-.207,2.409,2.409,0,0,1,1.019.229,1.871,1.871,0,0,1,.779.643h.022v-.333a.408.408,0,0,1,.408-.408h.166a.408.408,0,0,1,.408.408Zm-2.681-4.337a1.774,1.774,0,0,0-.708.136,1.564,1.564,0,0,0-.534.371,1.629,1.629,0,0,0-.338.567,2.117,2.117,0,0,0-.12.725,1.735,1.735,0,0,0,.458,1.259,1.864,1.864,0,0,0,2.484,0,1.734,1.734,0,0,0,.458-1.259,2.123,2.123,0,0,0-.12-.725,1.637,1.637,0,0,0-.338-.567,1.567,1.567,0,0,0-.534-.371A1.776,1.776,0,0,0,895.642,427.507Z" transform="translate(-848.469 -413.75)"/><path class="a" d="M823.317,404.543a9.781,9.781,0,0,0-.719,1.4.719.719,0,1,0,1.438,0A9.78,9.78,0,0,0,823.317,404.543Z" transform="translate(-786.965 -394.459)"/></g><g transform="translate(230.931 277.72)"><g transform="translate(1.594 27.317)"><path class="a" d="M272.039,497.8h-28.3a.063.063,0,0,1-.057-.089l.551-1.191.181-.39a.063.063,0,0,1,.057-.036h26.842a.063.063,0,0,1,.057.036l.18.39.551,1.191A.063.063,0,0,1,272.039,497.8Z" transform="translate(-243.672 -496.092)"/></g><g transform="translate(3.17 23.902)"><path class="a" d="M281.488,470.5H256.337a.063.063,0,0,1-.057-.089l.731-1.582a.063.063,0,0,1,.057-.036h23.689a.063.063,0,0,1,.057.036l.731,1.582A.063.063,0,0,1,281.488,470.5Z" transform="translate(-256.274 -468.795)"/></g><path class="a" d="M262.486,279.427a.063.063,0,0,1,.061.077l-.441,1.915-.328,1.423-.787,3.415-.592,2.561-.2.854-.787,3.415-.789,3.415-.776,3.366a.063.063,0,0,1-.061.049h-6.716a.063.063,0,0,1-.063-.063V293.94a4.217,4.217,0,0,0-.085-.854,4.269,4.269,0,0,0-8.366,0,4.217,4.217,0,0,0-.085.854v5.913a.063.063,0,0,1-.063.063h-6.716a.063.063,0,0,1-.061-.049l-.776-3.366-.789-3.415-.787-3.415-.2-.854-.592-2.561-.787-3.415-.328-1.423-.441-1.915a.063.063,0,0,1,.061-.077h6.7a.063.063,0,0,1,.061.049l.776,3.366.776,3.366a.063.063,0,0,0,.061.049h3.04a.063.063,0,0,0,.063-.063v-8.411a.063.063,0,0,1,.063-.063h8.411a.063.063,0,0,1,.063.063v8.411a.063.063,0,0,0,.063.063h3.04a.063.063,0,0,0,.061-.049l.776-3.366.776-3.366a.063.063,0,0,1,.061-.049Z" transform="translate(-230.931 -277.72)"/></g></g></svg>