<svg xmlns="http://www.w3.org/2000/svg" width="67.12" height="28.98" viewBox="0 0 67.12 28.98"><defs><style>.a{fill:#fff;}</style></defs><g transform="translate(-76.491 -246.112)"><path class="a" d="M495.8,272.879V246.332a.219.219,0,0,0-.22-.22h-3.3a.219.219,0,0,0-.219.22v28.45a.219.219,0,0,0,.329.19l3.3-1.9A.219.219,0,0,0,495.8,272.879Z" transform="translate(-368.85)"/><path class="a" d="M571.769,267.947V246.332a.22.22,0,0,0-.22-.22h-3.3a.219.219,0,0,0-.219.22V269.85a.219.219,0,0,0,.329.19l3.3-1.9A.219.219,0,0,0,571.769,267.947Z" transform="translate(-436.282)"/><path class="a" d="M76.54,387.557a.1.1,0,0,0-.049.086V398.37h3.734a.112.112,0,0,0,.112-.112v-10.37a5.424,5.424,0,0,1,.735-2.734.1.1,0,0,0-.134-.136Z" transform="translate(0 -123.278)"/><rect class="a" width="3.734" height="21.512" rx="1.867" transform="translate(114.67 253.58)"/><path class="a" d="M173.179,327.9a9.294,9.294,0,0,0-7.362,3.646,9.372,9.372,0,0,0-2.949-2.521.1.1,0,0,0-.1,0l-4.389,2.534a.1.1,0,0,0,.05.185h0a5.457,5.457,0,0,1,5.459,5.457v10.372a.111.111,0,0,0,.112.111h3.623a.112.112,0,0,0,.112-.111v-10.31a5.459,5.459,0,1,1,10.917-.06v10.37a.112.112,0,0,0,.112.111h3.623a.112.112,0,0,0,.112-.111V337.278A9.394,9.394,0,0,0,173.179,327.9Z" transform="translate(-72.64 -72.59)"/><rect class="a" width="3.734" height="3.734" rx="1.867" transform="translate(114.67 246.112)"/><rect class="a" width="3.734" height="3.734" rx="1.867" transform="translate(139.876 264.357)"/></g></svg>