<svg xmlns="http://www.w3.org/2000/svg" width="10.301" height="6" viewBox="0 0 10.301 6">
  <g id="is-greater-than-mathematical-sign" transform="translate(-7.308 6) rotate(-90)">
    <g id="グループ_15" data-name="グループ 15" transform="translate(-0.001 7.309)">
      <path id="パス_265" data-name="パス 265" d="M.037,17.111c.071.313.225.5.386.5A.26.26,0,0,0,.6,17.534L5.75,12.878a1.111,1.111,0,0,0,.249-.8,1.026,1.026,0,0,0-.272-.766L.575,7.365C.357,7.2.112,7.415.028,7.852A1.231,1.231,0,0,0,.272,8.946L4.477,12.17.249,15.991A1.3,1.3,0,0,0,.037,17.111Z" transform="translate(0.001 -7.309)" fill="#fff"/>
    </g>
  </g>
</svg>
