<svg xmlns="http://www.w3.org/2000/svg" width="91.068" height="31.98" viewBox="0 0 91.068 31.98"><defs><style>.a{fill:#fff;}</style></defs><g transform="translate(-189.293 -272.532)"><g transform="translate(189.293 272.532)"><path class="a" d="M198.777,287.883a18.9,18.9,0,0,1,1.494-7.389q.348-.825.773-1.608.411-.762.889-1.48t1-1.374q.53-.662,1.118-1.275.358-.372.735-.725v-1.2h0v-.3a16,16,0,0,0-15.5,15.986,15.4,15.4,0,0,0,3.543,9.847h0a10.451,10.451,0,0,0,7.435-3.093A18.894,18.894,0,0,1,198.777,287.883Z" transform="translate(-189.293 -272.532)"/><circle class="a" cx="3.255" cy="3.255" r="3.255" transform="translate(12.26 11.237) rotate(-9.217)"/><path class="a" d="M351.557,288.518a15.994,15.994,0,0,0-15.5-15.986v.3h0v1.2q.378.351.734.724.588.611,1.118,1.275t1,1.374c.318.478.615.973.889,1.48s.54,1.057.773,1.606h0a19.021,19.021,0,0,1,0,14.779,10.451,10.451,0,0,0,7.435,3.092h0A15.4,15.4,0,0,0,351.557,288.518Z" transform="translate(-319.568 -272.532)"/><path class="a" d="M254.02,508.932a16,16,0,0,0,17.441,0,13.52,13.52,0,0,0-17.441,0Z" transform="translate(-246.746 -479.537)"/></g><g transform="translate(226.736 281.321)"><path class="a" d="M523.651,351.627v2.351h.648l1.338-2.351h1.346L525.5,354a1.257,1.257,0,0,1-.212.266,1.147,1.147,0,0,1-.253.191.984.984,0,0,1,.253.187,1.307,1.307,0,0,1,.2.262l1.487,2.534H525.62l-1.321-2.4h-.648v2.4H522.5v-5.816Z" transform="translate(-522.496 -351.527)"/><path class="a" d="M569.431,351.627h1.836l1.471,5.816H571.55l-.291-1.2h-1.82l-.291,1.2h-1.2Zm1.022,1.047h-.2l-.582,2.543h1.363Z" transform="translate(-562.844 -351.527)"/><path class="a" d="M617.225,357.443H616.07v-5.816h1.155Z" transform="translate(-605.555 -351.527)"/><path class="a" d="M638.2,375.694v.847h-2.318v-.847Z" transform="translate(-623.136 -372.89)"/><path class="a" d="M657.364,351.627l1.089,2.385,1.088-2.385h1.338l-1.853,3.614v2.2h-1.155v-2.2l-1.836-3.614Z" transform="translate(-641.029 -351.527)"/><path class="a" d="M703.839,350.74a3.445,3.445,0,0,1,1,.125,1.58,1.58,0,0,1,.669.386,1.514,1.514,0,0,1,.378.661,3.44,3.44,0,0,1,.116.956v1.761a3.44,3.44,0,0,1-.116.956,1.513,1.513,0,0,1-.378.661,1.58,1.58,0,0,1-.669.386,3.448,3.448,0,0,1-1,.125,3.5,3.5,0,0,1-1-.125,1.545,1.545,0,0,1-.673-.386,1.569,1.569,0,0,1-.378-.661,3.327,3.327,0,0,1-.12-.956v-1.761a3.327,3.327,0,0,1,.12-.956,1.569,1.569,0,0,1,.378-.661,1.545,1.545,0,0,1,.673-.386A3.5,3.5,0,0,1,703.839,350.74Zm0,1.055a1.652,1.652,0,0,0-.494.062.66.66,0,0,0-.312.2.791.791,0,0,0-.162.361,2.75,2.75,0,0,0-.046.54v1.579a2.747,2.747,0,0,0,.046.54.791.791,0,0,0,.162.362.661.661,0,0,0,.312.2,1.655,1.655,0,0,0,.494.062,1.623,1.623,0,0,0,.486-.062.662.662,0,0,0,.312-.2.793.793,0,0,0,.162-.362,2.756,2.756,0,0,0,.046-.54v-1.579a2.759,2.759,0,0,0-.046-.54.792.792,0,0,0-.162-.361.661.661,0,0,0-.312-.2A1.62,1.62,0,0,0,703.839,351.8Z" transform="translate(-681.536 -350.74)"/><path class="a" d="M751.877,351.627v3.531a1.6,1.6,0,0,0,.224.976,1.234,1.234,0,0,0,1.566,0,1.575,1.575,0,0,0,.229-.972v-3.531h1.146v3.805a2.043,2.043,0,0,1-.573,1.537,2.541,2.541,0,0,1-3.174,0,2.043,2.043,0,0,1-.573-1.537v-3.805Z" transform="translate(-725.075 -351.527)"/><path class="a" d="M523.734,427.3l1.554,2.734,1.5-2.734h1.246v5.816h-1.146V429.1l-1.338,2.418h-.582l-1.321-2.41v4.013H522.5V427.3Z" transform="translate(-522.496 -418.699)"/><path class="a" d="M581.486,439.649v.274a1.027,1.027,0,0,0,.192.681.843.843,0,0,0,.668.224,2.377,2.377,0,0,0,.371-.025.6.6,0,0,0,.255-.1.4.4,0,0,0,.146-.2,1.1,1.1,0,0,0,.046-.349h1.113a1.8,1.8,0,0,1-.133.731,1.226,1.226,0,0,1-.378.486,1.609,1.609,0,0,1-.6.274,3.35,3.35,0,0,1-.8.087,2.166,2.166,0,0,1-1.471-.445,1.792,1.792,0,0,1-.507-1.417v-1.1a1.8,1.8,0,0,1,.494-1.413,2.171,2.171,0,0,1,1.483-.44,2.24,2.24,0,0,1,1.462.42,1.656,1.656,0,0,1,.507,1.35v.964Zm1.753-1.055a.733.733,0,0,0-.213-.6,1.361,1.361,0,0,0-1.319,0,.718.718,0,0,0-.221.6v.258h1.753Z" transform="translate(-573.883 -427.231)"/><path class="a" d="M626.893,430.494h-.872l-.191-.507a1.447,1.447,0,0,1-.519.424,1.7,1.7,0,0,1-.777.166,2.341,2.341,0,0,1-.8-.121,1.239,1.239,0,0,1-.528-.353,1.4,1.4,0,0,1-.287-.578,3.21,3.21,0,0,1-.087-.785v-1.147a3.213,3.213,0,0,1,.087-.785,1.372,1.372,0,0,1,.291-.577,1.277,1.277,0,0,1,.528-.353,2.3,2.3,0,0,1,.8-.12,1.818,1.818,0,0,1,.76.15,1.377,1.377,0,0,1,.519.391v-1.953h1.08Zm-2.027-3.8a.984.984,0,0,0-.727.22,1.041,1.041,0,0,0-.212.735v1.03a1.06,1.06,0,0,0,.208.727,1.189,1.189,0,0,0,1.425-.017.978.978,0,0,0,.254-.735v-.972a.877.877,0,0,0-.947-.989Z" transform="translate(-611.555 -416.075)"/><path class="a" d="M669.62,425.776v4.653h-1.1v-4.653Zm-.05-1.5v1h-1v-1Z" transform="translate(-652.113 -416.009)"/><path class="a" d="M688.992,437.655V440.5a1.16,1.16,0,0,0,.192.731.879.879,0,0,0,.718.241.82.82,0,0,0,.668-.27,1.211,1.211,0,0,0,.225-.793v-2.75h1.1v4.653h-.874l-.181-.523a1.4,1.4,0,0,1-.494.436,1.548,1.548,0,0,1-.752.17,2.306,2.306,0,0,1-.8-.121,1.243,1.243,0,0,1-.523-.353,1.4,1.4,0,0,1-.287-.577,3.213,3.213,0,0,1-.087-.785v-2.9Z" transform="translate(-669.308 -427.888)"/><path class="a" d="M734.017,437l.174.507a1.37,1.37,0,0,1,.478-.428,1.493,1.493,0,0,1,.727-.162,1.4,1.4,0,0,1,.71.179,1.129,1.129,0,0,1,.469.519,1.644,1.644,0,0,1,.59-.507,1.9,1.9,0,0,1,.889-.191,1.662,1.662,0,0,1,1.338.474,2.075,2.075,0,0,1,.4,1.371v2.891h-1.1v-2.758a1.458,1.458,0,0,0-.17-.756.709.709,0,0,0-.661-.283.8.8,0,0,0-.635.241,1.2,1.2,0,0,0-.212.8v2.758h-1.1v-2.758a1.463,1.463,0,0,0-.17-.752.7.7,0,0,0-.661-.287.792.792,0,0,0-.64.245,1.269,1.269,0,0,0-.208.818v2.734h-1.1V437Z" transform="translate(-709.474 -427.231)"/><path class="a" d="M814.846,427.3h4.13v1.088h-1.487v4.728h-1.155v-4.728h-1.487Z" transform="translate(-781.994 -418.699)"/><path class="a" d="M857.791,439.649v.274a1.028,1.028,0,0,0,.192.681.843.843,0,0,0,.668.224,2.376,2.376,0,0,0,.372-.025.6.6,0,0,0,.255-.1.4.4,0,0,0,.146-.2,1.092,1.092,0,0,0,.046-.349h1.113a1.8,1.8,0,0,1-.133.731,1.226,1.226,0,0,1-.378.486,1.612,1.612,0,0,1-.6.274,3.35,3.35,0,0,1-.8.087,2.165,2.165,0,0,1-1.471-.445,1.791,1.791,0,0,1-.507-1.417v-1.1a1.8,1.8,0,0,1,.494-1.413,2.171,2.171,0,0,1,1.483-.44,2.24,2.24,0,0,1,1.462.42,1.657,1.657,0,0,1,.507,1.35v.964Zm1.753-1.055a.733.733,0,0,0-.213-.6,1.361,1.361,0,0,0-1.319,0,.717.717,0,0,0-.221.6v.258h1.753Z" transform="translate(-819.139 -427.231)"/><path class="a" d="M901.911,438.834v-.316A.6.6,0,0,0,901.7,438a1.093,1.093,0,0,0-.634-.15.9.9,0,0,0-.722.233,1.157,1.157,0,0,0-.188.731v1.03a1.181,1.181,0,0,0,.183.727.886.886,0,0,0,.726.237,1.092,1.092,0,0,0,.634-.15.6.6,0,0,0,.209-.523v-.316h1.1v.316a1.65,1.65,0,0,1-.15.735,1.327,1.327,0,0,1-.411.494,1.785,1.785,0,0,1-.623.283,3.236,3.236,0,0,1-.794.091,2.1,2.1,0,0,1-1.479-.457,1.868,1.868,0,0,1-.49-1.429v-1.055a1.845,1.845,0,0,1,.494-1.425,2.117,2.117,0,0,1,1.475-.453,3.439,3.439,0,0,1,.8.087,1.7,1.7,0,0,1,.627.282,1.328,1.328,0,0,1,.407.5,1.692,1.692,0,0,1,.145.735v.316Z" transform="translate(-856.745 -427.231)"/><path class="a" d="M943.708,424.346v1.961a1.436,1.436,0,0,1,.507-.395,1.692,1.692,0,0,1,.748-.154,2.34,2.34,0,0,1,.8.12,1.276,1.276,0,0,1,.532.353,1.372,1.372,0,0,1,.291.573,3.2,3.2,0,0,1,.087.789v2.9h-1.1v-2.833a1.109,1.109,0,0,0-.2-.731,1.144,1.144,0,0,0-1.421.029,1.087,1.087,0,0,0-.249.777v2.758h-1.1v-6.148Z" transform="translate(-895.401 -416.075)"/><path class="a" d="M990.9,469.741h-1.113v-1.18H990.9Z" transform="translate(-937.272 -455.321)"/></g></g></svg>