<svg xmlns="http://www.w3.org/2000/svg" width="619.273" height="217.47" viewBox="0 0 619.273 217.47"><defs><style>.a{fill:#fff;}</style></defs><g transform="translate(-189.293 -272.532)"><g transform="translate(189.293 272.532)"><path class="a" d="M253.784,376.921a128.5,128.5,0,0,1,10.161-50.249q2.368-5.611,5.254-10.933,2.795-5.179,6.045-10.062,3.2-4.829,6.818-9.34t7.6-8.667q2.432-2.532,5-4.931v-8.145h0v-2.062A108.767,108.767,0,0,0,189.293,381.241c0,25.859,9.028,48.295,24.1,66.962h0a71.067,71.067,0,0,0,50.557-21.033A128.479,128.479,0,0,1,253.784,376.921Z" transform="translate(-189.293 -272.532)"/><circle class="a" cx="22.135" cy="22.135" r="22.135" transform="translate(83.369 76.415) rotate(-9.217)"/><path class="a" d="M441.434,381.241A108.762,108.762,0,0,0,336.061,272.532v2.062h.007v8.15q2.568,2.39,4.992,4.927,4,4.154,7.606,8.667t6.822,9.34c2.162,3.248,4.182,6.615,6.045,10.066q2.881,5.32,5.254,10.924v0a129.348,129.348,0,0,1,0,100.5A71.068,71.068,0,0,0,417.344,448.2h0C432.412,429.536,441.434,407.1,441.434,381.241Z" transform="translate(-223.907 -272.532)"/><path class="a" d="M254.02,527.426a108.83,108.83,0,0,0,118.6,0,91.939,91.939,0,0,0-118.6,0Z" transform="translate(-204.558 -327.533)"/></g><g transform="translate(443.914 332.295)"><path class="a" d="M530.349,351.627v15.99h4.407l9.1-15.99h9.153l-10.057,16.159a8.559,8.559,0,0,1-1.44,1.808,7.805,7.805,0,0,1-1.723,1.3,6.7,6.7,0,0,1,1.723,1.272,8.9,8.9,0,0,1,1.384,1.78l10.114,17.233H543.74l-8.984-16.329h-4.407v16.329H522.5V351.627Z" transform="translate(-522.496 -350.949)"/><path class="a" d="M578.009,351.627H590.5l10,39.551h-8.08l-1.978-8.136H578.066l-1.978,8.136h-8.136Zm6.949,7.119H583.6l-3.955,17.29h9.266Z" transform="translate(-533.216 -350.949)"/><path class="a" d="M623.923,391.178H616.07V351.627h7.853Z" transform="translate(-544.564 -350.949)"/><path class="a" d="M651.641,375.694v5.763H635.877v-5.763Z" transform="translate(-549.236 -356.625)"/><path class="a" d="M665.075,351.627l7.4,16.215,7.4-16.215h9.1l-12.6,24.578v14.973h-7.853V376.2l-12.486-24.578Z" transform="translate(-553.99 -350.949)"/><path class="a" d="M716.417,350.74a23.415,23.415,0,0,1,6.78.847,10.747,10.747,0,0,1,4.548,2.627,10.3,10.3,0,0,1,2.571,4.492,23.405,23.405,0,0,1,.791,6.5v11.978a23.4,23.4,0,0,1-.791,6.5,10.3,10.3,0,0,1-2.571,4.492A10.747,10.747,0,0,1,723.2,390.8a23.443,23.443,0,0,1-6.78.847,23.8,23.8,0,0,1-6.78-.847,10.509,10.509,0,0,1-4.577-2.627,10.67,10.67,0,0,1-2.571-4.492,22.629,22.629,0,0,1-.819-6.5V365.2a22.632,22.632,0,0,1,.819-6.5,10.67,10.67,0,0,1,2.571-4.492,10.509,10.509,0,0,1,4.577-2.627A23.771,23.771,0,0,1,716.417,350.74Zm0,7.175a11.233,11.233,0,0,0-3.362.424,4.488,4.488,0,0,0-2.119,1.356,5.381,5.381,0,0,0-1.1,2.458,18.7,18.7,0,0,0-.31,3.673v10.736a18.681,18.681,0,0,0,.31,3.672,5.384,5.384,0,0,0,1.1,2.458,4.5,4.5,0,0,0,2.119,1.356,11.257,11.257,0,0,0,3.362.423,11.039,11.039,0,0,0,3.306-.423,4.5,4.5,0,0,0,2.118-1.356,5.39,5.39,0,0,0,1.1-2.458,18.736,18.736,0,0,0,.311-3.672V365.825a18.756,18.756,0,0,0-.311-3.673,5.387,5.387,0,0,0-1.1-2.458,4.5,4.5,0,0,0-2.118-1.356A11.016,11.016,0,0,0,716.417,357.915Z" transform="translate(-564.752 -350.74)"/><path class="a" d="M758.575,351.627V375.64q0,4.745,1.526,6.639t5.311,1.893q3.785,0,5.339-1.921t1.554-6.611V351.627h7.8V377.5q0,6.668-3.9,10.453t-10.792,3.785q-6.893,0-10.792-3.785t-3.9-10.453V351.627Z" transform="translate(-576.321 -350.949)"/><path class="a" d="M530.914,427.3l10.566,18.589L551.65,427.3h8.475v39.551h-7.8V439.507l-9.1,16.442h-3.955l-8.984-16.385v27.29h-7.8V427.3Z" transform="translate(-522.496 -368.797)"/><path class="a" d="M587.847,455.5v1.865A6.984,6.984,0,0,0,589.153,462q1.306,1.526,4.543,1.525a16.133,16.133,0,0,0,2.526-.17,4.093,4.093,0,0,0,1.732-.65,2.723,2.723,0,0,0,.994-1.384,7.44,7.44,0,0,0,.313-2.374h7.57a12.226,12.226,0,0,1-.9,4.972,8.332,8.332,0,0,1-2.571,3.3,10.946,10.946,0,0,1-4.068,1.865,22.786,22.786,0,0,1-5.452.594q-6.554,0-10-3.023t-3.446-9.634v-7.514q0-6.611,3.362-9.605t10.085-2.995q6.5,0,9.944,2.853t3.447,9.181V455.5Zm11.922-7.175q0-2.938-1.448-4.1a9.26,9.26,0,0,0-8.97,0q-1.5,1.159-1.5,4.1v1.751h11.922Z" transform="translate(-536.149 -371.063)"/><path class="a" d="M650.459,466.156h-5.933l-1.3-3.446a9.834,9.834,0,0,1-3.532,2.882,11.57,11.57,0,0,1-5.283,1.13,15.916,15.916,0,0,1-5.452-.82,8.428,8.428,0,0,1-3.588-2.4,9.512,9.512,0,0,1-1.949-3.927,21.816,21.816,0,0,1-.593-5.339v-7.8a21.836,21.836,0,0,1,.593-5.34,9.326,9.326,0,0,1,1.978-3.926,8.68,8.68,0,0,1,3.588-2.4,15.672,15.672,0,0,1,5.424-.819,12.358,12.358,0,0,1,5.17,1.017,9.363,9.363,0,0,1,3.532,2.655V424.346h7.345Zm-13.787-25.821q-3.5,0-4.943,1.5t-1.44,5v7.007q0,3.389,1.412,4.943t4.972,1.554a6.5,6.5,0,0,0,4.718-1.667,6.654,6.654,0,0,0,1.724-5v-6.611q0-3.446-1.78-5.086A6.612,6.612,0,0,0,636.672,440.335Z" transform="translate(-546.159 -368.099)"/><path class="a" d="M675.981,434.5v31.64h-7.458V434.5Zm-.339-10.227v6.78h-6.78v-6.78Z" transform="translate(-556.935 -368.082)"/><path class="a" d="M695.353,437.655v19.323a7.892,7.892,0,0,0,1.305,4.972q1.306,1.639,4.881,1.638a5.577,5.577,0,0,0,4.541-1.836,8.236,8.236,0,0,0,1.532-5.4v-18.7h7.458V469.3h-5.942l-1.233-3.559a9.547,9.547,0,0,1-3.362,2.966,10.526,10.526,0,0,1-5.114,1.158,15.678,15.678,0,0,1-5.424-.82,8.453,8.453,0,0,1-3.559-2.4,9.511,9.511,0,0,1-1.949-3.927,21.845,21.845,0,0,1-.593-5.339V437.655Z" transform="translate(-561.504 -371.238)"/><path class="a" d="M739.078,437.48l1.186,3.446a9.317,9.317,0,0,1,3.249-2.91,10.153,10.153,0,0,1,4.944-1.1,9.537,9.537,0,0,1,4.831,1.215,7.674,7.674,0,0,1,3.192,3.531,11.176,11.176,0,0,1,4.012-3.446,12.912,12.912,0,0,1,6.045-1.3q6.385,0,9.1,3.221t2.712,9.323v19.662h-7.458V450.363a9.916,9.916,0,0,0-1.158-5.142q-1.159-1.92-4.492-1.921a5.453,5.453,0,0,0-4.322,1.638q-1.441,1.64-1.44,5.425v18.758h-7.458V450.363a9.938,9.938,0,0,0-1.158-5.114q-1.159-1.949-4.492-1.949a5.388,5.388,0,0,0-4.35,1.667q-1.413,1.668-1.413,5.565v18.589h-7.458V437.48Z" transform="translate(-572.175 -371.063)"/><path class="a" d="M814.846,427.3h28.081v7.4H832.813v32.149H824.96V434.7H814.846Z" transform="translate(-591.444 -368.797)"/><path class="a" d="M864.152,455.5v1.865A6.988,6.988,0,0,0,865.458,462q1.306,1.526,4.543,1.525a16.134,16.134,0,0,0,2.526-.17,4.089,4.089,0,0,0,1.732-.65,2.719,2.719,0,0,0,.994-1.384,7.417,7.417,0,0,0,.313-2.374h7.571a12.227,12.227,0,0,1-.9,4.972,8.333,8.333,0,0,1-2.571,3.3,10.957,10.957,0,0,1-4.068,1.865,22.791,22.791,0,0,1-5.452.594q-6.555,0-10-3.023t-3.447-9.634v-7.514q0-6.611,3.362-9.605t10.085-2.995q6.5,0,9.944,2.853t3.446,9.181V455.5Zm11.922-7.175q0-2.938-1.447-4.1a9.26,9.26,0,0,0-8.97,0q-1.5,1.159-1.5,4.1v1.751h11.922Z" transform="translate(-601.313 -371.063)"/><path class="a" d="M918.441,449.967V447.82a4.086,4.086,0,0,0-1.42-3.559,7.432,7.432,0,0,0-4.314-1.017q-3.634,0-4.91,1.583a7.873,7.873,0,0,0-1.278,4.972V456.8a8.031,8.031,0,0,0,1.248,4.943q1.249,1.61,4.94,1.61a7.426,7.426,0,0,0,4.314-1.017,4.084,4.084,0,0,0,1.42-3.559v-2.147H925.9v2.147a11.219,11.219,0,0,1-1.017,5,9.02,9.02,0,0,1-2.8,3.362,12.138,12.138,0,0,1-4.237,1.921,22,22,0,0,1-5.4.622q-6.724,0-10.057-3.108t-3.333-9.718v-7.176q0-6.61,3.362-9.69t10.028-3.08a23.385,23.385,0,0,1,5.425.593,11.534,11.534,0,0,1,4.266,1.921,9.034,9.034,0,0,1,2.769,3.391,11.5,11.5,0,0,1,.989,5v2.147Z" transform="translate(-611.305 -371.063)"/><path class="a" d="M950.069,424.346V437.68A9.764,9.764,0,0,1,953.516,435a11.5,11.5,0,0,1,5.085-1.045,15.919,15.919,0,0,1,5.452.819,8.675,8.675,0,0,1,3.617,2.4,9.327,9.327,0,0,1,1.977,3.9,21.743,21.743,0,0,1,.594,5.368v19.718h-7.458V446.889q0-3.389-1.356-4.972t-4.915-1.583a6.244,6.244,0,0,0-4.746,1.78,7.391,7.391,0,0,0-1.695,5.283v18.758h-7.458v-41.81Z" transform="translate(-621.576 -368.099)"/><path class="a" d="M997.354,476.584h-7.57v-8.023h7.57Z" transform="translate(-632.701 -378.527)"/></g></g></svg>